<svg width="14" height="14" viewBox="0 0 14 14" fill="none" xmlns="http://www.w3.org/2000/svg">
<path d="M7.84571 2.03427L8.85143 4.0457C8.98857 4.3257 9.35428 4.59427 9.66285 4.6457L11.4857 4.94855C12.6514 5.14284 12.9257 5.98855 12.0857 6.82284L10.6686 8.23998C10.4286 8.47998 10.2971 8.94284 10.3714 9.27427L10.7771 11.0286C11.0971 12.4171 10.36 12.9543 9.13142 12.2286L7.42285 11.2171C7.11428 11.0343 6.60571 11.0343 6.29143 11.2171L4.58285 12.2286C3.36 12.9543 2.61714 12.4114 2.93714 11.0286L3.34285 9.27427C3.41714 8.94284 3.28571 8.47998 3.04571 8.23998L1.62857 6.82284C0.794282 5.98855 1.06285 5.14284 2.22857 4.94855L4.05142 4.6457C4.35428 4.59427 4.72 4.3257 4.85714 4.0457L5.86285 2.03427C6.41143 0.942841 7.30285 0.942841 7.84571 2.03427Z" fill="#FBBE21"/>
</svg>
